=============================ANGER MANAGEMENT===================================

Format                           : AVI
Format/Info                      : Audio Video Interleave
File size                        : 686 MiB
Duration                         : 1h 38mn
Overall bit rate                 : 970 Kbps
Writing application              : Nandub v1.0rc2
Writing library                  : Nandub build 1852/release

Video
ID                               : 0
Format                           : MPEG-4 Visual
Format profile                   : Simple@L3
Format settings, BVOP            : No
Format settings, QPel            : No
Format settings, GMC             : No warppoints
Format settings, Matrix          : Default (H.263)
Codec ID                         : XVID
Codec ID/Hint                    : XviD
Duration                         : 1h 38mn
Bit rate                         : 821 Kbps
Width                            : 640 pixels
Height                           : 256 pixels
Display aspect ratio             : 2.500
Frame rate                       : 23.976 fps
Color space                      : YUV
Chroma subsampling               : 4:2:0
Bit depth                        : 8 bits
Scan type                        : Progressive
Bits/(Pixel*Frame)               : 0.209
Stream size                      : 580 MiB (85%)
Writing library                  : XviD 0.0.12 (UTC 2003-06-11)

Audio
ID                               : 1
Format                           : MPEG Audio
Format version                   : Version 1
Format profile                   : Layer 3
Mode                             : Joint stereo
Mode extension                   : MS Stereo
Codec ID                         : 55
Codec ID/Hint                    : MP3
Duration                         : 1h 38mn
Bit rate mode                    : Variable
Bit rate                         : 132 Kbps
Channel(s)                       : 2 channels
Sampling rate                    : 48.0 KHz
Stream size                      : 96.3 MiB (14%)
Alignment                        : Aligned on interleaves
Interleave, duration             : 24 ms (0.58 video frame)
Interleave, preload duration     : 462 ms
Writing library                  : LAME3.93 
Encoding settings                : -m j -V 4 -q 2 -lowpass 17.5 --abr 132

======================== CAST ==========================================

Adam Sandler   	 ...  	
Dave Buznik
Jack Nicholson 	Jack Nicholson 	... 	
Dr. Buddy Rydell
Marisa Tomei 	Marisa Tomei 	... 	
Linda
Luis Guzmán 	Luis Guzmán 	... 	
Lou (as Luis Guzman)
Allen Covert 	Allen Covert 	... 	
Andrew
Lynne Thigpen 	Lynne Thigpen 	... 	
Judge Brenda Daniels
Kurt Fuller 	Kurt Fuller 	... 	
Frank Head 

=========================HAUNTING SUMMER==========================================
